<svg width="24" height="24" viewBox="0 0 24 24" fill="none"
  xmlns="http://www.w3.org/2000/svg">
  <title>Account</title>
  <desc>A person within a circle to signify an account</desc>
  <path d="M12 5.25C9.70312 5.25 7.875 7.125 7.875 9.375C7.875 11.6719 9.70312 13.5 12 13.5C14.25 13.5 16.125 11.6719 16.125 9.375C16.125 7.125 14.25 5.25 12 5.25ZM12 11.25C10.9219 11.25 10.125 10.4531 10.125 9.375C10.125 8.34375 10.9219 7.5 12 7.5C13.0312 7.5 13.875 8.34375 13.875 9.375C13.875 10.4531 13.0312 11.25 12 11.25ZM12 0C5.34375 0 0 5.39062 0 12C0 18.6562 5.34375 24 12 24C18.6094 24 24 18.6562 24 12C24 5.39062 18.6094 0 12 0ZM12 21.75C9.79688 21.75 7.78125 21.0469 6.14062 19.8281C6.9375 18.2344 8.53125 17.25 10.3125 17.25H13.6406C15.4219 17.25 17.0156 18.2812 17.8125 19.8281C16.1719 21.0469 14.1562 21.75 12 21.75ZM19.5 18.2344C18.2344 16.2656 16.0781 15 13.6406 15H10.3125C7.875 15 5.71875 16.2656 4.45312 18.2344C3.04688 16.5469 2.25 14.3906 2.25 12C2.25 6.65625 6.60938 2.25 12 2.25C17.3438 2.25 21.75 6.65625 21.75 12C21.75 14.3906 20.9062 16.5469 19.5 18.2344Z"/>
</svg>