<svg width="19" height="18" viewBox="0 0 19 18" fill="none"
  xmlns="http://www.w3.org/2000/svg">
  <title>Google</title>
  <path fill-rule="evenodd" clip-rule="evenodd" d="M18.6254 9.20443C18.6254 8.56625 18.5681 7.95262 18.4617 7.36353H9.98535V10.8449H14.829C14.6204 11.9699 13.9863 12.9231 13.0331 13.5613V15.8194H15.9417C17.6435 14.2526 18.6254 11.9453 18.6254 9.20443Z" fill="#4285F4"/>
  <path fill-rule="evenodd" clip-rule="evenodd" d="M9.98548 18.0001C12.4155 18.0001 14.4527 17.1942 15.9418 15.8196L13.0332 13.5614C12.2273 14.1014 11.1964 14.4205 9.98548 14.4205C7.64139 14.4205 5.65729 12.8374 4.94957 10.7101H1.94275V13.0419C3.42366 15.9833 6.46729 18.0001 9.98548 18.0001Z" fill="#34A853"/>
  <path fill-rule="evenodd" clip-rule="evenodd" d="M4.94956 10.7101C4.76956 10.1701 4.66729 9.59325 4.66729 9.00007C4.66729 8.40689 4.76956 7.83007 4.94956 7.29007V4.95825H1.94275C1.3332 6.17325 0.985474 7.5478 0.985474 9.00007C0.985474 10.4523 1.3332 11.8269 1.94275 13.0419L4.94956 10.7101Z" fill="#FBBC05"/>
  <path fill-rule="evenodd" clip-rule="evenodd" d="M9.98548 3.57942C11.3068 3.57942 12.4932 4.03351 13.4259 4.92533L16.0073 2.34397C14.4487 0.891696 12.4114 -0.00012207 9.98548 -0.00012207C6.46729 -0.00012207 3.42366 2.0167 1.94275 4.95806L4.94957 7.28988C5.65729 5.1626 7.64139 3.57942 9.98548 3.57942Z" fill="#EA4335"/>
</svg>